<svg width="4130" height="4469" xmlns="http://www.w3.org/2000/svg" xmlns:xlink="http://www.w3.org/1999/xlink" xml:space="preserve" overflow="hidden"><g transform="translate(-4615 -238)"><g><text fill="#000000" fill-opacity="1" font-family="19 Light,19 Light_MSFontService,sans-serif" font-style="normal" font-variant="normal" font-weight="300" font-stretch="normal" font-size="110" text-anchor="start" direction="ltr" writing-mode="lr-tb" unicode-bidi="normal" text-decoration="none" transform="matrix(1 0 0 1 7939.16 375)">Scalp</text><text fill="#000000" fill-opacity="1" font-family="19 Light,19 Light_MSFontService,sans-serif" font-style="normal" font-variant="normal" font-weight="300" font-stretch="normal" font-size="110" text-anchor="start" direction="ltr" writing-mode="lr-tb" unicode-bidi="normal" text-decoration="none" transform="matrix(1 0 0 1 7939.16 618)">Musculature</text><text fill="#000000" fill-opacity="1" font-family="19 Light,19 Light_MSFontService,sans-serif" font-style="normal" font-variant="normal" font-weight="300" font-stretch="normal" font-size="110" text-anchor="start" direction="ltr" writing-mode="lr-tb" unicode-bidi="normal" text-decoration="none" transform="matrix(1 0 0 1 7939.16 941)">Skull bones</text><text fill="#000000" fill-opacity="1" font-family="19 Light,19 Light_MSFontService,sans-serif" font-style="normal" font-variant="normal" font-weight="300" font-stretch="normal" font-size="110" text-anchor="start" direction="ltr" writing-mode="lr-tb" unicode-bidi="normal" text-decoration="none" transform="matrix(1 0 0 1 7939.16 1219)">Dura mater</text><text fill="#000000" fill-opacity="1" font-family="19 Light,19 Light_MSFontService,sans-serif" font-style="normal" font-variant="normal" font-weight="300" font-stretch="normal" font-size="110" text-anchor="start" direction="ltr" writing-mode="lr-tb" unicode-bidi="normal" text-decoration="none" transform="matrix(1 0 0 1 7939.16 1523)">Pia mater</text><text fill="#000000" fill-opacity="1" font-family="19 Light,19 Light_MSFontService,sans-serif" font-style="normal" font-variant="normal" font-weight="300" font-stretch="normal" font-size="110" text-anchor="start" direction="ltr" writing-mode="lr-tb" unicode-bidi="normal" text-decoration="none" transform="matrix(1 0 0 1 7939.16 3278)">Brainstem</text><text fill="#000000" fill-opacity="1" font-family="19 Light,19 Light_MSFontService,sans-serif" font-style="normal" font-variant="normal" font-weight="300" font-stretch="normal" font-size="110" text-anchor="start" direction="ltr" writing-mode="lr-tb" unicode-bidi="normal" text-decoration="none" transform="matrix(1 0 0 1 7939.16 4598)">Spinal cord</text><path d="M4897 1700 6953.9 1700 6953.9 2050 7291.63 2050 7291.63 1702.48 7654 1702.48" stroke="#C1C1C1" stroke-width="284.167" stroke-linecap="butt" stroke-linejoin="miter" stroke-miterlimit="4" stroke-opacity="1" fill="none" fill-rule="evenodd"/><path d="M4902.5 1593.5 7069.43 1593.5 7069.43 1944.5 7210.08 1944.5 7210.08 1595.99 7659.5 1595.99" stroke="#5E5E5E" stroke-width="4.58333" stroke-linecap="butt" stroke-linejoin="miter" stroke-miterlimit="4" stroke-opacity="1" fill="none" fill-rule="evenodd"/><path d="M4897 1546 7109.75 1546 7109.75 1896 7149.57 1896 7149.57 1548.48 7654 1548.48" stroke="#EB220C" stroke-width="27.5" stroke-linecap="butt" stroke-linejoin="miter" stroke-miterlimit="4" stroke-opacity="1" fill="none" fill-rule="evenodd"/><path d="M4902.5 1660.5 7014.41 1660.5 7014.41 2010.5 7260.5 2010.5 7260.5 1662.98 7659.5 1662.98" stroke="#5E5E5E" stroke-width="4.58333" stroke-linecap="butt" stroke-linejoin="miter" stroke-miterlimit="4" stroke-opacity="1" fill="none" fill-rule="evenodd"/><path d="M4902.5 1739.5 6954.81 1739.5 6959.4 2080.5 7320.11 2080.5 7315.51 1741.98 7659.5 1741.98" stroke="#5E5E5E" stroke-width="4.58333" stroke-linecap="butt" stroke-linejoin="miter" stroke-miterlimit="4" stroke-opacity="1" fill="none" fill-rule="evenodd"/><path d="M4902.5 1798.5 6890.6 1798.5 6890.6 2139.5 7384.31 2139.5 7384.31 1801.01 7659.5 1801.01" stroke="#5E5E5E" stroke-width="4.58333" stroke-linecap="butt" stroke-linejoin="miter" stroke-miterlimit="4" stroke-opacity="1" fill="none" fill-rule="evenodd"/><path d="M5232.5 1795.62 5232.5 1546.5" stroke="#EB220C" stroke-width="9.16667" stroke-linecap="butt" stroke-linejoin="miter" stroke-miterlimit="4" stroke-opacity="1" fill="none" fill-rule="evenodd"/><path d="M0 0 58.4646 58.4646" stroke="#EB220C" stroke-width="4.58333" stroke-linecap="butt" stroke-linejoin="miter" stroke-miterlimit="4" stroke-opacity="1" fill="none" fill-rule="evenodd" transform="matrix(1 -1.22465e-16 -1.22465e-16 -1 5175.5 1647.96)"/><path d="M0 0 58.4646 58.4646" stroke="#EB220C" stroke-width="4.58333" stroke-linecap="butt" stroke-linejoin="miter" stroke-miterlimit="4" stroke-opacity="1" fill="none" fill-rule="evenodd" transform="matrix(1 -1.22465e-16 -1.22465e-16 -1 5175.5 1780.96)"/><path d="M5229.5 1642.5 5287.96 1700.96" stroke="#EB220C" stroke-width="4.58333" stroke-linecap="butt" stroke-linejoin="miter" stroke-miterlimit="4" stroke-opacity="1" fill="none" fill-rule="evenodd"/><path d="M0 0 0.000360892 249.124" stroke="#EB220C" stroke-width="9.16667" stroke-linecap="butt" stroke-linejoin="miter" stroke-miterlimit="4" stroke-opacity="1" fill="none" fill-rule="evenodd" transform="matrix(1 -1.22465e-16 -1.22465e-16 -1 6534.5 1795.62)"/><path d="M6590.96 1647.96 6532.5 1589.5" stroke="#EB220C" stroke-width="4.58333" stroke-linecap="butt" stroke-linejoin="miter" stroke-miterlimit="4" stroke-opacity="1" fill="none" fill-rule="evenodd"/><path d="M6590.96 1780.96 6532.5 1722.5" stroke="#EB220C" stroke-width="4.58333" stroke-linecap="butt" stroke-linejoin="miter" stroke-miterlimit="4" stroke-opacity="1" fill="none" fill-rule="evenodd"/><path d="M0 0 58.4646 58.4646" stroke="#EB220C" stroke-width="4.58333" stroke-linecap="butt" stroke-linejoin="miter" stroke-miterlimit="4" stroke-opacity="1" fill="none" fill-rule="evenodd" transform="matrix(-1 0 0 1 6536.96 1642.5)"/><path d="M5888.5 1795.62 5888.5 1546.5" stroke="#EB220C" stroke-width="9.16667" stroke-linecap="butt" stroke-linejoin="miter" stroke-miterlimit="4" stroke-opacity="1" fill="none" fill-rule="evenodd"/><path d="M0 0 58.4646 58.4646" stroke="#EB220C" stroke-width="4.58333" stroke-linecap="butt" stroke-linejoin="miter" stroke-miterlimit="4" stroke-opacity="1" fill="none" fill-rule="evenodd" transform="matrix(1 -1.22465e-16 -1.22465e-16 -1 5832.5 1647.96)"/><path d="M0 0 58.4646 58.4646" stroke="#EB220C" stroke-width="4.58333" stroke-linecap="butt" stroke-linejoin="miter" stroke-miterlimit="4" stroke-opacity="1" fill="none" fill-rule="evenodd" transform="matrix(1 -1.22465e-16 -1.22465e-16 -1 5832.5 1780.96)"/><path d="M5885.5 1642.5 5943.96 1700.96" stroke="#EB220C" stroke-width="4.58333" stroke-linecap="butt" stroke-linejoin="miter" stroke-miterlimit="4" stroke-opacity="1" fill="none" fill-rule="evenodd"/><path d="M0 0 0.000360892 249.124" stroke="#EB220C" stroke-width="9.16667" stroke-linecap="butt" stroke-linejoin="miter" stroke-miterlimit="4" stroke-opacity="1" fill="none" fill-rule="evenodd" transform="matrix(1 -1.22465e-16 -1.22465e-16 -1 7441.5 1795.62)"/><path d="M7497.96 1647.96 7439.5 1589.5" stroke="#EB220C" stroke-width="4.58333" stroke-linecap="butt" stroke-linejoin="miter" stroke-miterlimit="4" stroke-opacity="1" fill="none" fill-rule="evenodd"/><path d="M7497.96 1780.96 7439.5 1722.5" stroke="#EB220C" stroke-width="4.58333" stroke-linecap="butt" stroke-linejoin="miter" stroke-miterlimit="4" stroke-opacity="1" fill="none" fill-rule="evenodd"/><path d="M0 0 58.4646 58.4646" stroke="#EB220C" stroke-width="4.58333" stroke-linecap="butt" stroke-linejoin="miter" stroke-miterlimit="4" stroke-opacity="1" fill="none" fill-rule="evenodd" transform="matrix(-1 0 0 1 7444.96 1642.5)"/><path d="M0 0 0.000360892 249.122" stroke="#EB220C" stroke-width="9.16667" stroke-linecap="butt" stroke-linejoin="miter" stroke-miterlimit="4" stroke-opacity="1" fill="none" fill-rule="evenodd" transform="matrix(0.707107 0.707107 0.707107 -0.707107 6920.07 1870.31)"/><path d="M7064.22 1805.84 7064.22 1723.16" stroke="#EB220C" stroke-width="4.58333" stroke-linecap="butt" stroke-linejoin="miter" stroke-miterlimit="4" stroke-opacity="1" fill="none" fill-rule="evenodd"/><path d="M6970.23 1899.82 6970.23 1817.14" stroke="#EB220C" stroke-width="4.58333" stroke-linecap="butt" stroke-linejoin="miter" stroke-miterlimit="4" stroke-opacity="1" fill="none" fill-rule="evenodd"/><path d="M0 0 58.4638 58.4638" stroke="#EB220C" stroke-width="4.58333" stroke-linecap="butt" stroke-linejoin="miter" stroke-miterlimit="4" stroke-opacity="1" fill="none" fill-rule="evenodd" transform="matrix(-0.707107 -0.707107 -0.707107 0.707107 7030.92 1763.65)"/><path d="M0 0 0.000360892 249.122" stroke="#EB220C" stroke-width="9.16667" stroke-linecap="butt" stroke-linejoin="miter" stroke-miterlimit="4" stroke-opacity="1" fill="none" fill-rule="evenodd" transform="matrix(0.707107 -0.707107 -0.707107 -0.707107 7323.01 2064.78)"/><path d="M7258.55 1920.64 7175.87 1920.64" stroke="#EB220C" stroke-width="4.58333" stroke-linecap="butt" stroke-linejoin="miter" stroke-miterlimit="4" stroke-opacity="1" fill="none" fill-rule="evenodd"/><path d="M7352.53 2014.62 7269.85 2014.62" stroke="#EB220C" stroke-width="4.58333" stroke-linecap="butt" stroke-linejoin="miter" stroke-miterlimit="4" stroke-opacity="1" fill="none" fill-rule="evenodd"/><path d="M0 0 58.4638 58.4638" stroke="#EB220C" stroke-width="4.58333" stroke-linecap="butt" stroke-linejoin="miter" stroke-miterlimit="4" stroke-opacity="1" fill="none" fill-rule="evenodd" transform="matrix(-0.707107 0.707107 0.707107 0.707107 7216.36 1953.94)"/><path d="M5038 2086 4830 2086 4830 2627" stroke="#929292" stroke-width="18.3333" stroke-linecap="butt" stroke-linejoin="miter" stroke-miterlimit="4" stroke-opacity="1" fill="none" fill-rule="evenodd"/><path d="M5493 4212.04C5493 4156.24 5538.24 4111 5594.04 4111L6269.96 4111C6325.76 4111 6371 4156.24 6371 4212.04L6371 4428.96C6371 4484.76 6325.76 4530 6269.96 4530L5594.04 4530C5538.24 4530 5493 4484.76 5493 4428.96Z" fill="#C1C1C1" fill-rule="evenodd" fill-opacity="1"/><path d="M5337 2389 5337 4316 5938 4316" stroke="#EA43F7" stroke-width="18.3333" stroke-linecap="butt" stroke-linejoin="miter" stroke-miterlimit="4" stroke-opacity="1" fill="none" fill-rule="evenodd"/><path d="M5493 3619.8C5493 3564.13 5538.13 3519 5593.8 3519L6270.2 3519C6325.87 3519 6371 3564.13 6371 3619.8L6371 3836.2C6371 3891.87 6325.87 3937 6270.2 3937L5593.8 3937C5538.13 3937 5493 3891.87 5493 3836.2Z" fill="#C1C1C1" fill-rule="evenodd" fill-opacity="1"/><path d="M4991 1994.04C4991 1938.24 5036.24 1893 5092.04 1893L5767.96 1893C5823.76 1893 5869 1938.24 5869 1994.04L5869 2210.96C5869 2266.76 5823.76 2312 5767.96 2312L5092.04 2312C5036.24 2312 4991 2266.76 4991 2210.96Z" fill="#C1C1C1" fill-rule="evenodd" fill-opacity="1"/><text fill="#000000" fill-opacity="1" font-family="19 Light,19 Light_MSFontService,sans-serif" font-style="normal" font-variant="normal" font-weight="300" font-stretch="normal" font-size="183" text-anchor="start" direction="ltr" writing-mode="lr-tb" unicode-bidi="normal" text-decoration="none" transform="matrix(1 0 0 1 5175.77 2162)">HY, TH</text><path d="M5493 2594.04C5493 2538.24 5538.24 2493 5594.04 2493L6269.96 2493C6325.76 2493 6371 2538.24 6371 2594.04L6371 2810.96C6371 2866.76 6325.76 2912 6269.96 2912L5594.04 2912C5538.24 2912 5493 2866.76 5493 2810.96Z" fill="#C1C1C1" fill-rule="evenodd" fill-opacity="1"/><path d="M5493 3088.04C5493 3032.24 5538.24 2987 5594.04 2987L6269.96 2987C6325.76 2987 6371 3032.24 6371 3088.04L6371 3304.96C6371 3360.76 6325.76 3406 6269.96 3406L5594.04 3406C5538.24 3406 5493 3360.76 5493 3304.96Z" fill="#C1C1C1" fill-rule="evenodd" fill-opacity="1"/><path d="M6566 3362.04C6566 3306.24 6611.24 3261 6667.04 3261L6923.96 3261C6979.76 3261 7025 3306.24 7025 3362.04L7025 3578.96C7025 3634.76 6979.76 3680 6923.96 3680L6667.04 3680C6611.24 3680 6566 3634.76 6566 3578.96Z" fill="#C1C1C1" fill-rule="evenodd" fill-opacity="1"/><rect x="4898" y="957" width="2776" height="419" fill="#FEFE50" fill-opacity="1"/><rect x="4904" y="767" width="2775" height="173" fill="#C65000" fill-opacity="1"/><path d="M4904 1390 7679.77 1390" stroke="#008700" stroke-width="18.3333" stroke-linecap="butt" stroke-linejoin="miter" stroke-miterlimit="4" stroke-opacity="1" fill="none" fill-rule="evenodd"/><path d="M4898 1521 7673.77 1521" stroke="#008700" stroke-width="18.3333" stroke-linecap="butt" stroke-linejoin="miter" stroke-miterlimit="4" stroke-opacity="1" fill="none" fill-rule="evenodd"/><path d="M5051.8 1485.78C5049.21 1471.1 5107.32 1448.58 5181.58 1435.48 5255.85 1422.39 5318.15 1423.67 5320.74 1438.36 5323.33 1453.04 5265.22 1475.56 5190.96 1488.65 5116.69 1501.75 5054.39 1500.46 5051.8 1485.78Z" stroke="#008700" stroke-width="9.16667" stroke-linecap="butt" stroke-linejoin="miter" stroke-miterlimit="4" stroke-opacity="1" fill="none" fill-rule="evenodd"/><path d="M5589.78 1472.83C5576.95 1457.55 5572.3 1440.34 5579.38 1434.39 5586.47 1428.45 5602.61 1436.01 5615.44 1451.28 5628.27 1466.56 5632.92 1483.77 5625.83 1489.72 5618.75 1495.67 5602.61 1488.1 5589.78 1472.83Z" stroke="#008700" stroke-width="9.16667" stroke-linecap="butt" stroke-linejoin="miter" stroke-miterlimit="4" stroke-opacity="1" fill="none" fill-rule="evenodd"/><path d="M7217.77 1488.8C7144.54 1510.2 7067.29 1431.66 7144.72 1436.74 7158.7 1437.65 7166.81 1444.38 7171.39 1451.26 7176.12 1458.35 7180.18 1466.17 7193.92 1468.34 7198.03 1468.99 7202.45 1468.92 7206.48 1468.16 7210.05 1462.95 7222.47 1460.8 7231.73 1463.79 7248.22 1469.13 7240.27 1482.22 7217.77 1488.8Z" stroke="#3B8424" stroke-width="9.16667" stroke-linecap="butt" stroke-linejoin="miter" stroke-miterlimit="4" stroke-opacity="1" fill="none" fill-rule="evenodd"/><path d="M13.8121 124.968C-25.2306 52.3731 26.9513-26.0231 65.8451 8.33342 85.7183 25.8889 74.043 57.1518 51.3293 78.4716 44.4617 84.9187 36.5001 90.8795 34.2555 101.049 33.3566 105.132 33.6237 109.609 34.4352 113.65 39.6591 117.221 41.9037 129.713 38.7961 138.952 33.3874 155.065 24.7015 145.214 13.8121 124.968Z" stroke="#3B8424" stroke-width="9.16667" stroke-linecap="butt" stroke-linejoin="miter" stroke-miterlimit="4" stroke-opacity="1" fill="none" fill-rule="evenodd" transform="matrix(1.83697e-16 1 1 -1.83697e-16 5800.5 1414.5)"/><path d="M2.38193 104.452C-11.379 31.7894 39.1113-44.8543 35.8482 31.964 35.2591 45.835 30.9324 53.8883 26.5145 58.4344 21.9563 63.1218 16.9283 67.1526 15.5328 80.7826 15.1167 84.8633 15.1588 89.2514 15.6473 93.249 18.9993 96.7895 20.3785 109.115 18.4547 118.298 15.0209 134.663 6.60816 126.767 2.38193 104.452Z" stroke="#3B8424" stroke-width="9.16667" stroke-linecap="butt" stroke-linejoin="miter" stroke-miterlimit="4" stroke-opacity="1" fill="none" fill-rule="evenodd" transform="matrix(1.83697e-16 1 1 -1.83697e-16 5385.5 1444.5)"/><path d="M7285.58 1438.37C7288.17 1423.68 7350.47 1422.4 7424.73 1435.49 7499 1448.59 7557.1 1471.11 7554.51 1485.79 7551.92 1500.47 7489.62 1501.76 7415.36 1488.66 7341.09 1475.56 7282.99 1453.05 7285.58 1438.37Z" stroke="#008700" stroke-width="9.16667" stroke-linecap="butt" stroke-linejoin="miter" stroke-miterlimit="4" stroke-opacity="1" fill="none" fill-rule="evenodd"/><path d="M6263.46 1457.72C6273.45 1440.44 6288.05 1430.2 6296.06 1434.83 6304.07 1439.46 6302.47 1457.23 6292.47 1474.5 6282.48 1491.78 6267.88 1502.03 6259.87 1497.4 6251.86 1492.76 6253.46 1475 6263.46 1457.72Z" stroke="#008700" stroke-width="9.16667" stroke-linecap="butt" stroke-linejoin="miter" stroke-miterlimit="4" stroke-opacity="1" fill="none" fill-rule="evenodd"/><path d="M6185.37 1480.61C6172.54 1465.34 6167.89 1448.13 6174.97 1442.18 6182.06 1436.23 6198.2 1443.79 6211.03 1459.07 6223.86 1474.34 6228.51 1491.55 6221.43 1497.5 6214.34 1503.45 6198.2 1495.89 6185.37 1480.61Z" stroke="#008700" stroke-width="9.16667" stroke-linecap="butt" stroke-linejoin="miter" stroke-miterlimit="4" stroke-opacity="1" fill="none" fill-rule="evenodd"/><path d="M13.6304 53.807C-24.8986 231.096 26.5967 422.553 64.9787 338.648 84.5904 295.775 73.0687 219.425 50.6538 167.359 43.8767 151.614 36.0198 137.056 33.8047 112.221 32.9177 102.25 33.1812 91.3163 33.9821 81.4476 39.1372 72.7254 41.3524 42.2184 38.2857 19.6555 32.9481-19.6965 24.3765 4.36107 13.6304 53.807Z" stroke="#3B8424" stroke-width="9.16667" stroke-linecap="butt" stroke-linejoin="miter" stroke-miterlimit="4" stroke-opacity="1" fill="none" fill-rule="evenodd" transform="matrix(1.83697e-16 1 1 -1.83697e-16 6576.5 1422.5)"/><path d="M2.31576 105.275C-11.0629 32.0398 38.0249-45.2075 34.8523 32.2157 34.2797 46.1959 30.0731 54.3126 25.7779 58.8945 21.3464 63.6188 16.4581 67.6814 15.1013 81.4187 14.6968 85.5315 14.7377 89.9542 15.2127 93.9833 18.4716 97.5516 19.8124 109.974 17.942 119.23 14.6036 135.723 6.42459 127.765 2.31576 105.275Z" stroke="#3B8424" stroke-width="9.16667" stroke-linecap="butt" stroke-linejoin="miter" stroke-miterlimit="4" stroke-opacity="1" fill="none" fill-rule="evenodd" transform="matrix(1.83697e-16 1 1 -1.83697e-16 5980.5 1452.5)"/><path d="M6509.62 1454.68C6407.89 1425.91 6298.03 1464.36 6346.18 1493.02 6370.78 1507.66 6414.59 1499.06 6444.47 1482.32 6453.5 1477.26 6461.85 1471.39 6476.11 1469.74 6481.83 1469.08 6488.1 1469.28 6493.76 1469.87 6498.77 1473.72 6516.27 1475.38 6529.22 1473.09 6551.8 1469.1 6538 1462.7 6509.62 1454.68Z" stroke="#3B8424" stroke-width="9.16667" stroke-linecap="butt" stroke-linejoin="miter" stroke-miterlimit="4" stroke-opacity="1" fill="none" fill-rule="evenodd"/><path d="M5698.86 1488.43C5667.9 1449.52 5781.5 1408.48 5774.16 1449.61 5772.83 1457.04 5763.1 1461.35 5753.16 1463.79 5742.9 1466.3 5731.59 1468.46 5728.45 1475.75 5727.51 1477.94 5727.61 1480.29 5728.71 1482.43 5736.25 1484.32 5739.35 1490.92 5735.02 1495.84 5727.3 1504.6 5708.37 1500.38 5698.86 1488.43Z" stroke="#3B8424" stroke-width="9.16667" stroke-linecap="butt" stroke-linejoin="miter" stroke-miterlimit="4" stroke-opacity="1" fill="none" fill-rule="evenodd"/><path d="M7005.86 1483.6C6974.9 1445.27 7088.5 1404.84 7081.16 1445.36 7079.83 1452.68 7070.1 1456.93 7060.16 1459.33 7049.9 1461.8 7038.59 1463.93 7035.45 1471.12 7034.51 1473.27 7034.61 1475.59 7035.71 1477.69 7043.25 1479.56 7046.35 1486.06 7042.02 1490.91 7034.3 1499.54 7015.37 1495.38 7005.86 1483.6Z" stroke="#3B8424" stroke-width="9.16667" stroke-linecap="butt" stroke-linejoin="miter" stroke-miterlimit="4" stroke-opacity="1" fill="none" fill-rule="evenodd"/><text fill="#000000" fill-opacity="1" font-family="19 Light,19 Light_MSFontService,sans-serif" font-style="normal" font-variant="normal" font-weight="300" font-stretch="normal" font-size="183" text-anchor="start" direction="ltr" writing-mode="lr-tb" unicode-bidi="normal" text-decoration="none" transform="matrix(1 0 0 1 4986.38 2647)">PA</text><text fill="#000000" fill-opacity="1" font-family="19 Light,19 Light_MSFontService,sans-serif" font-style="normal" font-variant="normal" font-weight="300" font-stretch="normal" font-size="183" text-anchor="start" direction="ltr" writing-mode="lr-tb" unicode-bidi="normal" text-decoration="none" transform="matrix(1 0 0 1 5033.65 2869)">G</text><text fill="#000000" fill-opacity="1" font-family="19 Light,19 Light_MSFontService,sans-serif" font-style="normal" font-variant="normal" font-weight="300" font-stretch="normal" font-size="183" text-anchor="start" direction="ltr" writing-mode="lr-tb" unicode-bidi="normal" text-decoration="none" transform="matrix(1 0 0 1 5049.46 3254)">LC</text><text fill="#000000" fill-opacity="1" font-family="19 Light,19 Light_MSFontService,sans-serif" font-style="normal" font-variant="normal" font-weight="300" font-stretch="normal" font-size="183" text-anchor="start" direction="ltr" writing-mode="lr-tb" unicode-bidi="normal" text-decoration="none" transform="matrix(1 0 0 1 4970.81 3673)">RV</text><text fill="#000000" fill-opacity="1" font-family="19 Light,19 Light_MSFontService,sans-serif" font-style="normal" font-variant="normal" font-weight="300" font-stretch="normal" font-size="183" text-anchor="start" direction="ltr" writing-mode="lr-tb" unicode-bidi="normal" text-decoration="none" transform="matrix(1 0 0 1 5003.46 3895)">M</text><text fill="#000000" fill-opacity="1" font-family="19 Light,19 Light_MSFontService,sans-serif" font-style="normal" font-variant="normal" font-weight="300" font-stretch="normal" font-size="183" text-anchor="start" direction="ltr" writing-mode="lr-tb" unicode-bidi="normal" text-decoration="none" transform="matrix(1 0 0 1 4992.95 4232)">TC</text><text fill="#000000" fill-opacity="1" font-family="19 Light,19 Light_MSFontService,sans-serif" font-style="normal" font-variant="normal" font-weight="300" font-stretch="normal" font-size="183" text-anchor="start" direction="ltr" writing-mode="lr-tb" unicode-bidi="normal" text-decoration="none" transform="matrix(1 0 0 1 5037.06 4454)">C</text><text fill="#000000" fill-opacity="1" font-family="19 Light,19 Light_MSFontService,sans-serif" font-style="normal" font-variant="normal" font-weight="300" font-stretch="normal" font-size="183" text-anchor="start" direction="ltr" writing-mode="lr-tb" unicode-bidi="normal" text-decoration="none" transform="matrix(1 0 0 1 7012.56 3751)">SSN</text><text fill="#000000" fill-opacity="1" font-family="19 Light,19 Light_MSFontService,sans-serif" font-style="normal" font-variant="normal" font-weight="300" font-stretch="normal" font-size="183" text-anchor="start" direction="ltr" writing-mode="lr-tb" unicode-bidi="normal" text-decoration="none" transform="matrix(1 0 0 1 5535.65 4088)">on</text><text fill="#000000" fill-opacity="1" font-family="19 Light,19 Light_MSFontService,sans-serif" font-style="normal" font-variant="normal" font-weight="300" font-stretch="normal" font-size="183" text-anchor="start" direction="ltr" writing-mode="lr-tb" unicode-bidi="normal" text-decoration="none" transform="matrix(1 0 0 1 6146.64 4088)">off</text><path d="M5651 2702.5C5651 2656.94 5687.94 2620 5733.5 2620 5779.06 2620 5816 2656.94 5816 2702.5 5816 2748.06 5779.06 2785 5733.5 2785 5687.94 2785 5651 2748.06 5651 2702.5Z" fill="#EB220C" fill-rule="evenodd" fill-opacity="1"/><path d="M6027 2702.5C6027 2656.94 6063.94 2620 6109.5 2620 6155.06 2620 6192 2656.94 6192 2702.5 6192 2748.06 6155.06 2785 6109.5 2785 6063.94 2785 6027 2748.06 6027 2702.5Z" fill="#004C7F" fill-rule="evenodd" fill-opacity="1"/><path d="M5661 3727.5C5661 3681.94 5697.94 3645 5743.5 3645 5789.06 3645 5826 3681.94 5826 3727.5 5826 3773.06 5789.06 3810 5743.5 3810 5697.94 3810 5661 3773.06 5661 3727.5Z" fill="#004C7F" fill-rule="evenodd" fill-opacity="1"/><path d="M6037 3727.5C6037 3681.94 6073.94 3645 6119.5 3645 6165.06 3645 6202 3681.94 6202 3727.5 6202 3773.06 6165.06 3810 6119.5 3810 6073.94 3810 6037 3773.06 6037 3727.5Z" fill="#EB220C" fill-rule="evenodd" fill-opacity="1"/><path d="M5839 4320.5C5839 4274.94 5875.94 4238 5921.5 4238 5967.06 4238 6004 4274.94 6004 4320.5 6004 4366.06 5967.06 4403 5921.5 4403 5875.94 4403 5839 4366.06 5839 4320.5Z" fill="#EA43F7" fill-rule="evenodd" fill-opacity="1"/><path d="M6868.5 4190.43C6868.5 4134.69 6913.69 4089.5 6969.43 4089.5L7225.57 4089.5C7281.31 4089.5 7326.5 4134.69 7326.5 4190.43L7326.5 4601.57C7326.5 4657.31 7281.31 4702.5 7225.57 4702.5L6969.43 4702.5C6913.69 4702.5 6868.5 4657.31 6868.5 4601.57Z" stroke="#5E5E5E" stroke-width="9.16667" stroke-linecap="butt" stroke-linejoin="miter" stroke-miterlimit="4" stroke-opacity="1" fill="none" fill-rule="evenodd"/><text fill="#000000" fill-opacity="1" font-family="19 Light,19 Light_MSFontService,sans-serif" font-style="normal" font-variant="normal" font-weight="300" font-stretch="normal" font-size="183" text-anchor="start" direction="ltr" writing-mode="lr-tb" unicode-bidi="normal" text-decoration="none" transform="matrix(1 0 0 1 7375.96 4022)">T</text><text fill="#000000" fill-opacity="1" font-family="19 Light,19 Light_MSFontService,sans-serif" font-style="normal" font-variant="normal" font-weight="300" font-stretch="normal" font-size="183" text-anchor="start" direction="ltr" writing-mode="lr-tb" unicode-bidi="normal" text-decoration="none" transform="matrix(1 0 0 1 7361.63 4244)">G</text><path d="M7014 4227.5C7014 4181.94 7050.94 4145 7096.5 4145 7142.06 4145 7179 4181.94 7179 4227.5 7179 4273.06 7142.06 4310 7096.5 4310 7050.94 4310 7014 4273.06 7014 4227.5Z" fill="#EA43F7" fill-rule="evenodd" fill-opacity="1"/><path d="M6713 3470.5C6713 3424.94 6749.94 3388 6795.5 3388 6841.06 3388 6878 3424.94 6878 3470.5 6878 3516.06 6841.06 3553 6795.5 3553 6749.94 3553 6713 3516.06 6713 3470.5Z" fill="#007800" fill-rule="evenodd" fill-opacity="1"/><path d="M7040.5 2910.54C7040.5 2854.74 7085.74 2809.5 7141.54 2809.5L7397.46 2809.5C7453.26 2809.5 7498.5 2854.74 7498.5 2910.54L7498.5 3127.46C7498.5 3183.26 7453.26 3228.5 7397.46 3228.5L7141.54 3228.5C7085.74 3228.5 7040.5 3183.26 7040.5 3127.46Z" stroke="#5E5E5E" stroke-width="9.16667" stroke-linecap="butt" stroke-linejoin="miter" stroke-miterlimit="4" stroke-opacity="1" fill="none" fill-rule="evenodd"/><text fill="#000000" fill-opacity="1" font-family="19 Light,19 Light_MSFontService,sans-serif" font-style="normal" font-variant="normal" font-weight="300" font-stretch="normal" font-size="183" text-anchor="start" direction="ltr" writing-mode="lr-tb" unicode-bidi="normal" text-decoration="none" transform="matrix(1 0 0 1 7112.55 3183)">SPG</text><path d="M7193 2964.5C7193 2918.94 7229.94 2882 7275.5 2882 7321.06 2882 7358 2918.94 7358 2964.5 7358 3010.06 7321.06 3047 7275.5 3047 7229.94 3047 7193 3010.06 7193 2964.5Z" fill="#007800" fill-rule="evenodd" fill-opacity="1"/><path d="M5733 3617.08 5733 2702" stroke="#EB220C" stroke-width="18.3333" stroke-linecap="butt" stroke-linejoin="miter" stroke-miterlimit="4" stroke-opacity="1" fill="none" fill-rule="evenodd"/><path d="M6115 3597.52 6115 2657" stroke="#004C7F" stroke-width="18.3333" stroke-linecap="butt" stroke-linejoin="miter" stroke-miterlimit="4" stroke-opacity="1" fill="none" fill-rule="evenodd"/><path d="M7065 4369.01 7065 4196" stroke="#EA43F7" stroke-width="18.3333" stroke-linecap="butt" stroke-linejoin="miter" stroke-miterlimit="4" stroke-opacity="1" fill="none" fill-rule="evenodd"/><path d="M5347 3462 6495.5 3462" stroke="#EA43F7" stroke-width="18.3333" stroke-linecap="butt" stroke-linejoin="miter" stroke-miterlimit="4" stroke-opacity="1" fill="none" fill-rule="evenodd"/><path d="M6812 3485 7245 3485 7245 3311" stroke="#33761F" stroke-width="18.3333" stroke-linecap="butt" stroke-linejoin="miter" stroke-miterlimit="4" stroke-opacity="1" fill="none" fill-rule="evenodd"/><path d="M7284 2983 7284 1283 6109 1283" stroke="#33761F" stroke-width="18.3333" stroke-linecap="butt" stroke-linejoin="miter" stroke-miterlimit="4" stroke-opacity="1" fill="none" fill-rule="evenodd"/><path d="M5347 2724 5437.51 2724" stroke="#EA43F7" stroke-width="18.3333" stroke-linecap="butt" stroke-linejoin="miter" stroke-miterlimit="4" stroke-opacity="1" fill="none" fill-rule="evenodd"/><path d="M5347 3197 5437.51 3197" stroke="#EA43F7" stroke-width="18.3333" stroke-linecap="butt" stroke-linejoin="miter" stroke-miterlimit="4" stroke-opacity="1" fill="none" fill-rule="evenodd"/><path d="M5347 3731 5437.51 3731" stroke="#EA43F7" stroke-width="18.3333" stroke-linecap="butt" stroke-linejoin="miter" stroke-miterlimit="4" stroke-opacity="1" fill="none" fill-rule="evenodd"/><path d="M0 0 0 91.9998 91.9998 91.9998" stroke="#EA43F7" stroke-width="18.3333" stroke-linecap="butt" stroke-linejoin="miter" stroke-miterlimit="4" stroke-opacity="1" fill="none" fill-rule="evenodd" transform="matrix(-1 0 0 1 6025 4338)"/><path d="M0 0 0 91.6659 91.6659 91.6659" stroke="#EA43F7" stroke-width="18.3333" stroke-linecap="butt" stroke-linejoin="miter" stroke-miterlimit="4" stroke-opacity="1" fill="none" fill-rule="evenodd" transform="matrix(-0.707107 -0.707107 -0.707107 0.707107 5403.35 2330.23)"/><path d="M0 0 0 91.6659 91.6659 91.6659" stroke="#33761F" stroke-width="18.3333" stroke-linecap="butt" stroke-linejoin="miter" stroke-miterlimit="4" stroke-opacity="1" fill="none" fill-rule="evenodd" transform="matrix(-0.707107 0.707107 0.707107 0.707107 6044.22 1216.38)"/><path d="M0 0 0 91.6659 91.6659 91.6659" stroke="#EA43F7" stroke-width="18.3333" stroke-linecap="butt" stroke-linejoin="miter" stroke-miterlimit="4" stroke-opacity="1" fill="none" fill-rule="evenodd" transform="matrix(0.707107 -0.707107 -0.707107 -0.707107 5494.87 3265.06)"/><path d="M0 0 0 91.6659 91.6659 91.6659" stroke="#EA43F7" stroke-width="18.3333" stroke-linecap="butt" stroke-linejoin="miter" stroke-miterlimit="4" stroke-opacity="1" fill="none" fill-rule="evenodd" transform="matrix(0.707107 -0.707107 -0.707107 -0.707107 5505.56 3792.72)"/><path d="M0 0 0 91.6659 91.6659 91.6659" stroke="#EA43F7" stroke-width="18.3333" stroke-linecap="butt" stroke-linejoin="miter" stroke-miterlimit="4" stroke-opacity="1" fill="none" fill-rule="evenodd" transform="matrix(0.707107 -0.707107 -0.707107 -0.707107 5494.87 2788.48)"/><path d="M0 0 0 91.6659 91.6659 91.6659" stroke="#33761F" stroke-width="18.3333" stroke-linecap="butt" stroke-linejoin="miter" stroke-miterlimit="4" stroke-opacity="1" fill="none" fill-rule="evenodd" transform="matrix(-0.707107 -0.707107 -0.707107 0.707107 7315.28 3258.73)"/><path d="M0 0 0 91.6659 91.6659 91.6659" stroke="#FF0000" stroke-width="18.3333" stroke-linecap="butt" stroke-linejoin="miter" stroke-miterlimit="4" stroke-opacity="1" fill="none" fill-rule="evenodd" transform="matrix(0.707107 0.707107 0.707107 -0.707107 5674.46 3658.76)"/><path d="M0 0 0 91.6659 91.6659 91.6659" stroke="#1D4C7C" stroke-width="18.3333" stroke-linecap="butt" stroke-linejoin="miter" stroke-miterlimit="4" stroke-opacity="1" fill="none" fill-rule="evenodd" transform="matrix(0.707107 0.707107 0.707107 -0.707107 6054.88 3635.84)"/><path d="M6647 1699 6647 2088 5976 2088" stroke="#EA43F7" stroke-width="18.3333" stroke-linecap="butt" stroke-linejoin="miter" stroke-miterlimit="4" stroke-opacity="1" fill="none" fill-rule="evenodd"/><path d="M0 0 0 91.6659 91.6659 91.6659" stroke="#EA43F7" stroke-width="18.3333" stroke-linecap="butt" stroke-linejoin="miter" stroke-miterlimit="4" stroke-opacity="1" fill="none" fill-rule="evenodd" transform="matrix(-0.707107 0.707107 0.707107 0.707107 5914.69 2028.7)"/><path d="M0 0 0 91.6659 91.6659 91.6659" stroke="#EA43F7" stroke-width="18.3333" stroke-linecap="butt" stroke-linejoin="miter" stroke-miterlimit="4" stroke-opacity="1" fill="none" fill-rule="evenodd" transform="matrix(-0.707107 -0.707107 -0.707107 0.707107 6707.62 1643.68)"/><rect x="4904" y="372" width="2775" height="387" fill="#F1D7D3" fill-opacity="1"/><rect x="4954" y="968" width="1033" height="76" fill="#00A2FF" fill-opacity="1"/><path d="M4930.5 1007C4930.5 988.498 4942.59 973.5 4957.5 973.5 4972.41 973.5 4984.5 988.498 4984.5 1007 4984.5 1025.5 4972.41 1040.5 4957.5 1040.5 4942.59 1040.5 4930.5 1025.5 4930.5 1007Z" stroke="#0076B9" stroke-width="9.16667" stroke-linecap="butt" stroke-linejoin="miter" stroke-miterlimit="4" stroke-opacity="1" fill="#00A2FF" fill-rule="evenodd" fill-opacity="1"/><path d="M5962 1006C5962 985.013 5974.09 968 5989 968 6003.91 968 6016 985.013 6016 1006 6016 1026.99 6003.91 1044 5989 1044 5974.09 1044 5962 1026.99 5962 1006Z" fill="#00A2FF" fill-rule="evenodd" fill-opacity="1"/><path d="M0 0 0 91.6659 91.6659 91.6659" stroke="#EA43F7" stroke-width="18.3333" stroke-linecap="butt" stroke-linejoin="miter" stroke-miterlimit="4" stroke-opacity="1" fill="none" fill-rule="evenodd" transform="matrix(0.707107 -0.707107 -0.707107 -0.707107 6547.33 3531.02)"/><path d="M5749 3775 5749 4113.36 5823 4208" stroke="#004C7F" stroke-width="18.3333" stroke-linecap="butt" stroke-linejoin="miter" stroke-miterlimit="4" stroke-opacity="1" fill="none" fill-rule="evenodd"/><path d="M0 0 0 338.362 102 433" stroke="#EB220C" stroke-width="18.3333" stroke-linecap="butt" stroke-linejoin="miter" stroke-miterlimit="4" stroke-opacity="1" fill="none" fill-rule="evenodd" transform="matrix(-1 0 0 1 6121 3773)"/><path d="M6025 4292 6025 4200 5933 4200" stroke="#EB220C" stroke-width="18.3333" stroke-linecap="butt" stroke-linejoin="miter" stroke-miterlimit="4" stroke-opacity="1" fill="none" fill-rule="evenodd"/><path d="M0 0 0 92.0001 90.9997 92.0001" stroke="#004C7F" stroke-width="18.3333" stroke-linecap="butt" stroke-linejoin="miter" stroke-miterlimit="4" stroke-opacity="1" fill="none" fill-rule="evenodd" transform="matrix(1 -1.22465e-16 -1.22465e-16 -1 5812 4292)"/><path d="M5812 4338 5812 4430 5903 4430" stroke="#EA43F7" stroke-width="18.3333" stroke-linecap="butt" stroke-linejoin="miter" stroke-miterlimit="4" stroke-opacity="1" fill="none" fill-rule="evenodd"/><rect x="4904" y="286" width="2775" height="76" fill="#D1BAB8" fill-opacity="1"/><rect x="4904" y="746" width="2775" height="16.0002" fill="#5E2D12" fill-opacity="1"/><text fill="#000000" fill-opacity="1" font-family="19 Light,19 Light_MSFontService,sans-serif" font-style="normal" font-variant="normal" font-weight="300" font-stretch="normal" font-size="101" text-anchor="start" direction="ltr" writing-mode="lr-tb" unicode-bidi="normal" text-decoration="none" transform="matrix(1 0 0 1 5079.47 713)">Periosteum</text><text fill="#000000" fill-opacity="1" font-family="19 Light,19 Light_MSFontService,sans-serif" font-style="normal" font-variant="normal" font-weight="300" font-stretch="normal" font-size="110" text-anchor="start" direction="ltr" writing-mode="lr-tb" unicode-bidi="normal" text-decoration="none" transform="matrix(1 0 0 1 6527.9 1052)">C  and A </text><text fill="#000000" fill-opacity="1" font-family="Cambria Math,Cambria Math_MSFontService,sans-serif" font-style="normal" font-variant="normal" font-weight="400" font-stretch="normal" font-size="110" text-anchor="start" direction="ltr" writing-mode="lr-tb" unicode-bidi="normal" text-decoration="none" transform="matrix(1 0 0 1 6929.51 1052)">ğ›¿</text><text fill="#000000" fill-opacity="1" font-family="19 Light,19 Light_MSFontService,sans-serif" font-style="normal" font-variant="normal" font-weight="300" font-stretch="normal" font-size="110" text-anchor="start" direction="ltr" writing-mode="lr-tb" unicode-bidi="normal" text-decoration="none" transform="matrix(1 0 0 1 7012.59 1052)">Fasern</text><path d="M7120 4662.59 7120 4224" stroke="#EA43F7" stroke-width="18.3333" stroke-linecap="butt" stroke-linejoin="miter" stroke-miterlimit="4" stroke-opacity="1" fill="none" fill-rule="evenodd"/><text fill="#000000" fill-opacity="1" font-family="19 Light,19 Light_MSFontService,sans-serif" font-style="normal" font-variant="normal" font-weight="300" font-stretch="normal" font-size="110" text-anchor="start" direction="ltr" writing-mode="lr-tb" unicode-bidi="normal" text-decoration="none" transform="matrix(1 0 0 1 7083.6 1206)">CGRP</text><text fill="#000000" fill-opacity="1" font-family="19 Light,19 Light_MSFontService,sans-serif" font-style="normal" font-variant="normal" font-weight="300" font-stretch="normal" font-size="110" text-anchor="start" direction="ltr" writing-mode="lr-tb" unicode-bidi="normal" text-decoration="none" transform="matrix(1 0 0 1 5790.11 3113)">CGRP</text><text fill="#000000" fill-opacity="1" font-family="19 Light,19 Light_MSFontService,sans-serif" font-style="normal" font-variant="normal" font-weight="300" font-stretch="normal" font-size="110" text-anchor="start" direction="ltr" writing-mode="lr-tb" unicode-bidi="normal" text-decoration="none" transform="matrix(1 0 0 1 4682.83 2003)">CGRP</text><path d="M5651 3196.5C5651 3150.94 5687.94 3114 5733.5 3114 5779.06 3114 5816 3150.94 5816 3196.5 5816 3242.06 5779.06 3279 5733.5 3279 5687.94 3279 5651 3242.06 5651 3196.5Z" fill="#EB220C" fill-rule="evenodd" fill-opacity="1"/><path d="M6027 3200.5C6027 3154.94 6063.94 3118 6109.5 3118 6155.06 3118 6192 3154.94 6192 3200.5 6192 3246.06 6155.06 3283 6109.5 3283 6063.94 3283 6027 3246.06 6027 3200.5Z" fill="#004C7F" fill-rule="evenodd" fill-opacity="1"/><path d="M7393 943.022 7393 745" stroke="#FFFFFF" stroke-width="18.3333" stroke-linecap="butt" stroke-linejoin="miter" stroke-miterlimit="4" stroke-opacity="1" fill="none" fill-rule="evenodd"/><path d="M7393.5 1088.09 7393.5 649.5" stroke="#EA43F7" stroke-width="9.16667" stroke-linecap="butt" stroke-linejoin="miter" stroke-miterlimit="4" stroke-opacity="1" fill="none" fill-rule="evenodd"/><text fill="#000000" fill-opacity="1" font-family="19 Light,19 Light_MSFontService,sans-serif" font-style="normal" font-variant="normal" font-weight="300" font-stretch="normal" font-size="110" text-anchor="start" direction="ltr" writing-mode="lr-tb" unicode-bidi="normal" text-decoration="none" transform="matrix(1 0 0 1 6407.12 1202)">Substance P</text><path d="M6053.22 957.219 6291.6 1195.6 6529.98 957.219Z" fill="#FFFFFF" fill-rule="evenodd" fill-opacity="1"/><text fill="#000000" fill-opacity="1" font-family="19 Light,19 Light_MSFontService,sans-serif" font-style="normal" font-variant="normal" font-weight="300" font-stretch="normal" font-size="110" text-anchor="start" direction="ltr" writing-mode="lr-tb" unicode-bidi="normal" text-decoration="none" transform="matrix(1 0 0 1 7334.55 4598)">1st order</text><text fill="#000000" fill-opacity="1" font-family="19 Light,19 Light_MSFontService,sans-serif" font-style="normal" font-variant="normal" font-weight="300" font-stretch="normal" font-size="110" text-anchor="start" direction="ltr" writing-mode="lr-tb" unicode-bidi="normal" text-decoration="none" transform="matrix(1 0 0 1 4867.23 4066)">2nd order</text><text fill="#000000" fill-opacity="1" font-family="19 Light,19 Light_MSFontService,sans-serif" font-style="normal" font-variant="normal" font-weight="300" font-stretch="normal" font-size="110" text-anchor="start" direction="ltr" writing-mode="lr-tb" unicode-bidi="normal" text-decoration="none" transform="matrix(1 0 0 1 6059.12 2258)">3rd order</text><text fill="#000000" fill-opacity="1" font-family="19 Light,19 Light_MSFontService,sans-serif" font-style="normal" font-variant="normal" font-weight="300" font-stretch="normal" font-size="110" text-anchor="start" direction="ltr" writing-mode="lr-tb" unicode-bidi="normal" text-decoration="none" transform="matrix(1 0 0 1 5165.69 1318)">VIP </text><text fill="#000000" fill-opacity="1" font-family="19 Light,19 Light_MSFontService,sans-serif" font-style="normal" font-variant="normal" font-weight="300" font-stretch="normal" font-size="83" text-anchor="start" direction="ltr" writing-mode="lr-tb" unicode-bidi="normal" text-decoration="none" transform="matrix(1 0 0 1 5343.29 1318)">( anterior)</text><text fill="#000000" fill-opacity="1" font-family="19 Light,19 Light_MSFontService,sans-serif" font-style="normal" font-variant="normal" font-weight="300" font-stretch="normal" font-size="110" text-anchor="start" direction="ltr" writing-mode="lr-tb" unicode-bidi="normal" text-decoration="none" transform="matrix(-1.83697e-16 -1 1 -1.83697e-16 4767.52 2628)">Stress axis</text><path d="M6495.4 1095.13 7547 1086 7547 4361.69 6232.66 4361.69 6078.72 4488 6021 4434.92" stroke="#FF1DFF" stroke-width="18.3333" stroke-linecap="butt" stroke-linejoin="miter" stroke-miterlimit="4" stroke-opacity="1" fill="none" fill-rule="evenodd"/><path d="M6584.42 546.477 7774 540 7774 4655 5786.8 4655 5701 4547.55 5807.53 4436.3" stroke="#FF1DFF" stroke-width="18.3333" stroke-linecap="butt" stroke-linejoin="miter" stroke-miterlimit="4" stroke-opacity="1" fill="none" fill-rule="evenodd"/></g></g></svg>