<svg width="922" height="922" xmlns="http://www.w3.org/2000/svg" xmlns:xlink="http://www.w3.org/1999/xlink" xml:space="preserve" overflow="hidden"><g transform="translate(-1177 -430)"><g><path d="M1181 891C1181 637.501 1386.5 432 1640 432 1893.5 432 2099 637.501 2099 891 2099 1144.5 1893.5 1350 1640 1350 1386.5 1350 1181 1144.5 1181 891Z" fill="#FFFFFF" fill-rule="evenodd" fill-opacity="1"/><rect x="1471" y="522" width="376" height="740" fill="#000000" fill-opacity="1"/><path d="M1468 560 1720 614.337 1468 739Z" fill="#FFFFFF" fill-rule="evenodd" fill-opacity="1"/><path d="M0 252 54.3372 0 179 252Z" fill="#FFFFFF" fill-rule="evenodd" fill-opacity="1" transform="matrix(-1.83697e-16 -1 -1 1.83697e-16 1720 917)"/><path d="M1850 878 1566 738.5 1850 599Z" fill="#FFFFFF" fill-rule="evenodd" fill-opacity="1"/><path d="M1850 1100 1510 957.608 1850 873Z" fill="#FFFFFF" fill-rule="evenodd" fill-opacity="1"/><path d="M0 380 162 0 162 380Z" fill="#FFFFFF" fill-rule="evenodd" fill-opacity="1" transform="matrix(6.12323e-17 1 1 -6.12323e-17 1470 1102)"/><path d="M0 380 0 0 79.9997 380Z" fill="#FFFFFF" fill-rule="evenodd" fill-opacity="1" transform="matrix(6.12323e-17 1 1 -6.12323e-17 1470 520)"/><path d="M1614.81 1046.01 1745 1101 1614.81 1155.99ZM1468 984 1580.64 1031.58 1580.64 1170.42 1468 1218Z" fill="#FFFFFF" fill-rule="evenodd" fill-opacity="1"/><rect x="1468.5" y="517.5" width="382" height="749" stroke="#FFFFFF" stroke-width="9.16667" stroke-linecap="butt" stroke-linejoin="round" stroke-miterlimit="10" stroke-opacity="1" fill="none"/></g></g></svg>